<?xml version="1.0" encoding="UTF-8" standalone="no"?>
<svg
   xmlns:dc="http://purl.org/dc/elements/1.1/"
   xmlns:cc="http://creativecommons.org/ns#"
   xmlns:rdf="http://www.w3.org/1999/02/22-rdf-syntax-ns#"
   xmlns:svg="http://www.w3.org/2000/svg"
   xmlns="http://www.w3.org/2000/svg"
   id="svg8"
   version="1.1"
   viewBox="0 0 33.866666 33.866668"
   height="128"
   width="128">
  <defs
     id="defs2" />
  <metadata
     id="metadata5">
    <rdf:RDF>
      <cc:Work
         rdf:about="">
        <dc:format>image/svg+xml</dc:format>
        <dc:type
           rdf:resource="http://purl.org/dc/dcmitype/StillImage" />
        <dc:title></dc:title>
      </cc:Work>
    </rdf:RDF>
  </metadata>
  <g
     transform="translate(0,-263.13331)"
     id="layer1">
    <path
       id="path828"
       d="m 3.1416726,291.52514 c -0.7672757,-0.26605 -1.3094883,-0.74956 -1.6524941,-1.47356 l -0.2025122,-0.42746 v -9.57051 -9.5705 l 0.2384317,-0.48244 c 0.291505,-0.58982 0.7171993,-1.00767 1.315143,-1.29093 l 0.4302562,-0.20382 H 16.936651 30.602807 l 0.482434,0.23843 c 0.589819,0.2915 1.007679,0.71719 1.290938,1.31514 L 32.58,270.48974 v 9.56719 9.56719 l -0.203821,0.43026 c -0.283255,0.59793 -0.701119,1.02363 -1.290928,1.31514 l -0.482425,0.23843 -13.570172,0.0142 c -12.7450197,0.0134 -13.5896804,0.008 -13.8909814,-0.0971 z m 27.4746284,-1.43761 c 0.146713,-0.0971 0.34619,-0.29657 0.443282,-0.44329 l 0.176531,-0.26676 v -9.32055 -9.32055 l -0.176531,-0.26676 c -0.09709,-0.14672 -0.296572,-0.3462 -0.443289,-0.44329 L 30.349537,269.8498 H 16.933333 3.5171286 l -0.2667571,0.17653 c -0.1467164,0.0971 -0.346196,0.29657 -0.4432883,0.44328 l -0.1765314,0.26675 -0.016853,9.17788 c -0.011753,6.39898 0.00399,9.25529 0.051992,9.43356 0.084235,0.31283 0.5412144,0.78922 0.8400449,0.87574 0.133766,0.0387 5.1551704,0.0577 13.5282713,0.0511 l 13.315546,-0.0101 z m -7.124306,-1.23262 c -0.106021,-0.0528 -2.395245,-2.29859 -5.087169,-4.99069 l -4.894407,-4.89472 -4.2891441,4.2874 -4.2891427,4.28739 H 4.6661768 c -0.4863355,0 -0.8195826,-0.43925 -0.6591368,-0.8688 0.093554,-0.25047 8.987046,-9.16198 9.263144,-9.28191 0.11903,-0.0517 0.283818,-0.0732 0.383967,-0.0503 0.119642,0.0274 1.320366,1.18286 3.775001,3.63241 l 3.599554,3.59213 1.552006,-1.54421 c 1.016151,-1.01103 1.612584,-1.55815 1.727454,-1.58459 0.100161,-0.0231 0.264924,-0.002 0.383967,0.0499 0.263627,0.11428 5.07287,4.93504 5.162942,5.17531 0.161788,0.43157 -0.171252,0.87995 -0.653607,0.87995 -0.262866,0 -0.282843,-0.0179 -2.507778,-2.23953 l -2.242802,-2.23952 -1.230014,1.23161 -1.230015,1.23161 1.214919,1.21928 c 1.189126,1.19339 1.214917,1.22495 1.214917,1.48686 0,0.49627 -0.503,0.83225 -0.9287,0.62031 z M 19.77397,276.57218 c -0.526131,-0.11742 -0.876732,-0.306 -1.282636,-0.68988 -0.580097,-0.54863 -0.85406,-1.1802 -0.85406,-1.96884 0,-0.79393 0.273599,-1.41987 0.865194,-1.97938 1.076872,-1.01846 2.700964,-0.98894 3.760618,0.0683 0.820558,0.81872 1.031422,2.01721 0.54107,3.07528 -0.520168,1.12241 -1.82152,1.76423 -3.030186,1.49448 z m 1.112208,-1.41389 c 1.080884,-0.45162 1.080884,-2.03805 0,-2.48968 -0.326948,-0.1366 -0.833407,-0.1262 -1.123635,0.0231 -1.04233,0.53615 -1.031995,1.90664 0.01855,2.45949 0.247353,0.13018 0.802022,0.13374 1.105088,0.007 z"
       style="fill:#ffffff;stroke-width:0.06399455" />
  </g>
</svg>
